<?xml version="1.0" standalone="no"?>
<!DOCTYPE svg PUBLIC "-//W3C//DTD SVG 20010904//EN"
 "http://www.w3.org/TR/2001/REC-SVG-20010904/DTD/svg10.dtd">
<svg version="1.0" xmlns="http://www.w3.org/2000/svg"
 width="100.000000pt" height="100.000000pt" viewBox="0 0 100.000000 100.000000"
 preserveAspectRatio="xMidYMid meet">

<g transform="translate(0.000000,100.000000) scale(0.100000,-0.100000)"
fill="#000000" stroke="none">
<path d="M400 875 c-30 -9 -73 -26 -95 -40 -74 -43 -155 -144 -180 -224 -7
-23 -7 -23 29 5 20 16 54 52 75 80 31 39 57 60 121 92 71 36 91 42 146 42 80
0 152 -26 215 -80 46 -39 72 -48 96 -32 20 12 -95 123 -149 144 -67 25 -190
32 -258 13z"/>
<path d="M821 664 c-80 -22 -134 -43 -153 -59 -36 -30 -20 -33 56 -10 27 8 52
15 56 15 4 0 -8 -39 -27 -86 -30 -73 -34 -93 -28 -133 l7 -46 42 120 c58 163
55 159 120 174 31 7 56 16 56 21 0 5 9 12 20 15 27 9 25 25 -2 24 -13 0 -79
-16 -147 -35z"/>
<path d="M857 530 c-9 -25 -21 -70 -27 -100 -6 -30 -19 -73 -30 -95 -20 -42
-80 -109 -96 -108 -5 0 -24 -12 -42 -28 -18 -16 -38 -29 -45 -29 -7 0 2 11 18
25 29 24 28 24 -35 -5 -111 -51 -233 -37 -328 40 -30 23 -45 30 -57 23 -13 -8
-7 -17 37 -59 46 -44 64 -53 126 -69 157 -38 297 0 401 110 85 90 125 204 104
300 l-9 39 -17 -44z"/>
</g>
</svg>
