<?xml version="1.0" standalone="no"?>
<!DOCTYPE svg PUBLIC "-//W3C//DTD SVG 20010904//EN"
 "http://www.w3.org/TR/2001/REC-SVG-20010904/DTD/svg10.dtd">
<svg version="1.0" xmlns="http://www.w3.org/2000/svg"
 width="120.000000pt" height="140.000000pt" viewBox="0 0 120.000000 140.000000"
 preserveAspectRatio="xMidYMid meet">

<g transform="translate(0.000000,140.000000) scale(0.100000,-0.100000)"
fill="#000000" stroke="none">
<path d="M403 1371 c-57 -41 -96 -125 -101 -213 -5 -78 -7 -80 -135 -102 -43
-7 -80 -15 -82 -18 -3 -3 21 -31 54 -63 l59 -58 -15 -51 c-20 -69 -61 -124
-127 -175 -31 -24 -56 -45 -56 -47 0 -24 171 -253 260 -348 67 -71 227 -209
308 -265 l32 -22 33 22 c80 56 240 194 307 265 89 95 260 324 260 348 0 2 -25
23 -56 47 -66 51 -107 106 -127 175 l-15 51 59 58 c33 32 57 60 54 63 -2 3
-39 11 -82 18 -43 8 -90 19 -105 25 -26 10 -28 16 -28 65 0 93 -57 206 -119
239 -29 14 -29 14 -62 -38 -35 -53 -89 -97 -119 -97 -29 0 -84 44 -116 93 -17
26 -33 50 -36 52 -3 3 -23 -8 -45 -24z m59 -146 c-14 -30 -16 -94 -3 -114 7
-11 22 -5 75 33 l65 46 66 -45 c37 -25 71 -43 76 -40 13 8 11 75 -2 114 -10
28 -9 35 12 57 31 33 42 30 62 -12 43 -88 24 -185 -54 -284 -55 -70 -33 -63
35 11 56 60 57 61 87 48 17 -6 56 -17 86 -23 l55 -11 -58 -27 c-208 -95 -255
-120 -306 -162 l-57 -47 -58 47 c-54 44 -92 64 -292 155 l-74 34 55 11 c31 6
70 17 87 23 29 13 31 12 92 -53 66 -71 91 -82 41 -18 -88 110 -109 212 -63
301 l23 44 31 -31 c28 -28 29 -34 19 -57z m-179 -304 c24 -9 24 -13 29 -148 6
-162 21 -212 98 -320 52 -76 141 -160 177 -169 47 -12 174 107 238 221 49 86
65 160 65 292 0 113 0 114 26 123 14 6 27 10 28 10 2 0 6 -20 9 -45 11 -75 53
-150 117 -207 l58 -52 -31 -46 c-44 -65 -160 -210 -194 -243 l-30 -28 -28 41
c-33 47 -39 50 -32 12 5 -25 -2 -37 -59 -93 -64 -63 -65 -64 -44 -81 20 -16
20 -17 -26 -52 -39 -30 -49 -33 -65 -23 -15 9 -23 9 -38 0 -16 -10 -26 -7 -65
23 -46 35 -46 36 -26 52 21 17 20 18 -44 81 -57 56 -64 68 -59 93 7 38 1 35
-32 -12 l-28 -41 -25 23 c-33 31 -128 148 -184 228 l-46 65 60 54 c67 60 104
126 114 204 4 26 8 47 10 47 1 0 14 -4 27 -9z m172 -76 c22 -12 61 -42 88 -65
39 -34 47 -48 47 -76 0 -19 -4 -34 -9 -34 -24 0 -71 24 -76 38 -7 19 -53 58
-80 68 -16 6 -17 1 -10 -57 10 -84 27 -138 61 -196 l29 -48 3 45 c2 25 -1 46
-7 48 -28 9 -50 41 -56 79 l-7 42 58 -19 c31 -11 65 -20 76 -20 17 0 18 -11
18 -165 0 -117 -3 -165 -11 -165 -26 0 -155 147 -186 211 -43 88 -52 134 -53
262 l0 107 38 -15 c20 -9 55 -27 77 -40z m415 -23 c0 -78 -17 -191 -31 -208
-5 -7 -40 -20 -77 -30 -75 -20 -82 -26 -82 -71 0 -41 12 -42 41 -2 22 31 85
66 97 54 14 -14 -49 -106 -123 -180 l-80 -80 -3 169 c-1 93 -1 170 0 171 2 1
22 5 46 8 31 4 42 2 39 -6 -18 -42 -17 -51 0 -27 10 14 35 42 55 62 41 40 58
85 38 98 -7 4 -10 15 -7 24 10 24 -1 19 -15 -8 -28 -50 -93 -113 -126 -120
-31 -7 -32 -7 -32 25 0 26 10 41 53 81 53 49 182 122 198 112 5 -3 9 -35 9
-72z"/>
</g>
</svg>
