<?xml version="1.0" standalone="no"?>
<!DOCTYPE svg PUBLIC "-//W3C//DTD SVG 20010904//EN"
 "http://www.w3.org/TR/2001/REC-SVG-20010904/DTD/svg10.dtd">
<svg version="1.0" xmlns="http://www.w3.org/2000/svg"
 width="100.000000pt" height="100.000000pt" viewBox="0 0 100.000000 100.000000"
 preserveAspectRatio="xMidYMid meet">

<g transform="translate(0.000000,100.000000) scale(0.100000,-0.100000)"
fill="#000000" stroke="none">
<path d="M13 914 c3 -11 22 -111 42 -224 20 -113 43 -215 51 -228 8 -12 46
-45 84 -73 52 -37 70 -57 70 -74 0 -69 9 -81 127 -165 l115 -82 62 43 c191
134 175 119 176 169 0 25 4 50 8 56 4 5 38 32 76 59 42 30 73 60 81 79 13 32
90 445 83 451 -1 1 -111 -53 -243 -122 l-240 -124 -249 127 c-185 94 -247 122
-243 108z m157 -129 c75 -38 73 -34 83 -147 3 -32 1 -48 -7 -48 -6 0 -38 17
-71 39 -61 38 -61 38 -73 103 -13 72 -15 88 -7 88 3 0 37 -16 75 -35z m746 18
c-3 -10 -10 -45 -15 -77 -6 -33 -17 -64 -24 -68 -46 -31 -119 -69 -123 -65 -3
2 -2 39 2 81 l7 77 66 34 c75 39 95 43 87 18z m-551 -120 c72 -36 75 -39 75
-73 0 -19 4 -42 10 -50 7 -12 12 -12 29 4 19 18 21 17 50 -3 l30 -22 3 53 3
53 73 38 c41 22 76 36 79 33 5 -5 -21 -338 -33 -417 -4 -31 -15 -43 -71 -83
-95 -69 -93 -69 -93 10 1 81 11 102 68 143 34 25 42 37 42 62 l0 31 -32 -20
c-91 -54 -98 -57 -116 -46 -9 6 -38 23 -64 38 l-48 28 0 -31 c0 -24 8 -36 45
-61 25 -17 49 -39 55 -50 11 -20 14 -160 4 -160 -3 0 -38 23 -78 51 -39 29
-72 52 -73 53 -1 1 -9 80 -17 176 -9 96 -19 199 -22 228 -3 28 -3 52 0 52 3 0
39 -17 81 -37z m-103 -165 c8 -29 10 -108 2 -108 -9 0 -88 57 -106 76 -9 11
-20 43 -24 73 l-7 54 64 -36 c40 -23 66 -45 71 -59z m612 50 c-11 -71 -21 -86
-79 -124 -30 -20 -57 -35 -59 -33 -2 2 -1 31 2 64 l7 60 60 37 c33 20 63 37
68 37 4 1 4 -18 1 -41z"/>
</g>
</svg>
