<?xml version="1.0" standalone="no"?>
<!DOCTYPE svg PUBLIC "-//W3C//DTD SVG 20010904//EN"
 "http://www.w3.org/TR/2001/REC-SVG-20010904/DTD/svg10.dtd">
<svg version="1.0" xmlns="http://www.w3.org/2000/svg"
 width="100.000000pt" height="100.000000pt" viewBox="0 0 100.000000 100.000000"
 preserveAspectRatio="xMidYMid meet">

<g transform="translate(0.000000,100.000000) scale(0.100000,-0.100000)"
fill="#000000" stroke="none">
<path d="M460 973 c-75 -14 -281 -78 -317 -99 -47 -27 -59 -54 -49 -107 5 -28
2 -38 -20 -58 -41 -38 -46 -54 -30 -91 8 -18 17 -42 21 -52 4 -15 8 -17 17 -8
19 19 58 14 77 -10 l18 -21 11 32 c7 18 17 31 24 29 18 -6 31 -65 18 -86 -8
-13 -9 -11 -5 13 5 26 4 27 -4 8 -6 -13 -16 -23 -23 -23 -7 0 -3 -7 9 -15 23
-16 57 -15 73 1 6 6 20 33 31 60 16 41 18 44 13 14 -13 -69 -35 -101 -79 -114
-11 -3 3 -3 30 -1 40 4 46 2 31 -7 -11 -6 -33 -11 -49 -10 -28 1 -28 0 -22
-41 13 -74 43 -107 108 -118 l42 -6 -45 -2 c-27 0 -55 5 -67 14 -31 22 -59 92
-57 142 1 27 -3 47 -13 55 -13 10 -14 7 -9 -25 3 -20 9 -54 12 -74 9 -61 31
-91 84 -118 28 -14 50 -30 50 -35 0 -6 6 -10 13 -10 7 0 21 -6 31 -13 17 -13
15 -16 -28 -41 -43 -25 -66 -51 -66 -76 0 -7 6 -8 19 -1 36 20 116 32 161 26
39 -6 42 -9 28 -19 -15 -11 -9 -16 48 -39 35 -15 80 -27 99 -27 50 0 141 26
174 50 39 27 71 96 71 151 0 26 12 72 29 114 58 138 63 258 15 363 -13 29 -23
56 -23 60 5 31 -43 91 -101 127 -35 22 -153 68 -220 85 -36 10 -86 11 -130 3z
m140 -28 c-11 -13 -7 -15 29 -15 86 0 246 -82 246 -126 0 -10 6 -30 14 -43 13
-23 12 -23 -23 4 -19 15 -38 35 -41 45 -3 11 -12 17 -19 14 -8 -3 -26 6 -40
21 -29 28 -85 55 -113 54 -11 0 -13 -3 -5 -6 22 -9 12 -20 -15 -16 -16 3 -50
-6 -79 -19 -42 -20 -64 -24 -115 -21 -73 5 -149 5 -232 2 -92 -4 -89 17 8 46
175 53 266 74 329 74 60 1 67 -1 56 -14z m-262 -160 c17 -14 35 -25 41 -25 6
0 11 -4 11 -10 0 -12 -6 -12 -52 1 -21 5 -38 14 -38 19 0 18 -47 10 -66 -11
-10 -11 -26 -18 -36 -16 -10 3 -18 1 -18 -3 0 -5 30 -11 68 -15 37 -4 76 -9
87 -12 19 -6 19 -6 -3 -14 -31 -12 -27 -26 14 -51 29 -17 33 -23 20 -30 -11
-6 -22 -2 -36 12 -26 26 -38 25 -105 -10 -65 -34 -135 -41 -135 -14 0 9 8 23
18 30 15 12 15 15 2 24 -8 5 -26 10 -39 10 l-24 0 23 25 c13 14 30 25 38 25
11 0 13 8 8 31 -5 27 -4 30 9 19 12 -10 25 -7 67 14 66 33 108 33 146 1z m331
-61 c25 -57 -2 -165 -57 -223 -9 -10 -22 -26 -28 -36 -10 -18 -14 -16 -57 20
-26 22 -47 43 -47 47 0 14 48 39 86 45 l39 6 -20 -23 -20 -24 30 21 c17 11 35
20 40 19 18 -2 39 77 31 119 -5 26 -10 34 -16 25 -6 -10 -10 -8 -18 7 -9 15
-7 19 7 20 11 1 23 -9 30 -23z m151 -76 c0 -9 4 -8 10 2 8 12 10 10 10 -10 0
-29 -19 -66 -21 -40 0 8 -6 -4 -13 -27 -15 -46 -56 -117 -63 -109 -3 3 9 33
26 67 17 34 31 77 31 96 0 18 5 33 10 33 6 0 10 -6 10 -12z m-520 -22 c0 -2
-9 -6 -20 -9 -11 -3 -20 -1 -20 4 0 5 9 9 20 9 11 0 20 -2 20 -4z m294 -6
c-86 -9 -146 -47 -184 -113 -16 -29 -30 -67 -30 -84 0 -18 -5 -33 -11 -33 -18
0 -2 79 25 125 46 79 111 115 201 113 l60 -1 -61 -7z m-414 -60 c0 -5 -2 -10
-4 -10 -3 0 -8 5 -11 10 -3 6 -1 10 4 10 6 0 11 -4 11 -10z m178 -52 c-2 -6
-10 -14 -16 -16 -7 -2 -10 2 -6 12 7 18 28 22 22 4z m277 -19 c4 -5 0 -18 -7
-27 -8 -9 -18 -24 -22 -32 -4 -8 6 0 23 19 17 19 33 32 37 28 12 -11 -5 -37
-38 -57 -42 -26 -56 -7 -31 44 17 37 27 44 38 25z m-51 -123 c107 -94 133
-122 125 -133 -6 -7 -20 -13 -30 -13 -11 0 -27 -5 -37 -11 -29 -18 -139 13
-175 50 -29 28 -29 29 -12 55 23 34 10 47 -35 36 l-35 -8 35 -2 c29 -1 32 -3
15 -10 -13 -6 -15 -9 -5 -9 13 -1 13 -2 0 -11 -20 -13 -53 -13 -45 0 3 6 2 10
-4 10 -5 0 -9 14 -9 31 1 25 5 30 20 26 14 -4 18 1 18 22 0 35 20 93 30 89 5
-2 69 -57 144 -122z m200 82 c15 -56 -1 -158 -24 -158 -8 0 -100 78 -117 100
-9 12 -7 20 15 43 14 15 36 27 49 27 24 0 31 -14 13 -25 -5 -3 -10 -1 -10 6 0
8 -9 4 -22 -8 -13 -11 -30 -23 -38 -27 -8 -3 1 -4 20 -1 20 3 48 18 65 35 36
36 41 37 49 8z m56 -58 c0 -56 -24 -125 -52 -147 -9 -8 -5 7 11 38 19 40 25
68 25 119 1 38 4 63 8 57 4 -7 8 -37 8 -67z m-520 8 c0 7 7 12 16 12 14 0 14
-3 4 -15 -10 -12 -9 -15 6 -16 12 0 14 -3 6 -6 -20 -8 -72 17 -72 35 0 13 3
12 20 -3 11 -10 20 -13 20 -7z m95 -118 c-3 -5 -10 -10 -16 -10 -5 0 -9 5 -9
10 0 6 7 10 16 10 8 0 12 -4 9 -10z m92 -73 c18 3 53 -2 79 -11 60 -20 95 -21
88 -2 -4 11 8 15 55 18 65 3 69 -9 5 -19 -21 -3 -43 -12 -47 -20 -11 -18 -34
-16 -100 6 -41 14 -54 16 -51 7 4 -10 -10 -15 -50 -18 -36 -3 -78 -16 -117
-36 -34 -17 -56 -25 -49 -17 23 28 113 65 158 65 27 0 41 4 37 10 -4 6 -15 8
-25 5 -19 -6 -80 38 -80 58 0 6 15 -3 33 -20 26 -25 38 -30 64 -26z m349 -50
c-14 -38 -66 -103 -66 -83 0 4 -10 2 -22 -5 -14 -7 -9 1 12 19 19 17 30 31 24
32 -6 0 4 16 22 36 19 19 34 40 34 46 0 6 3 8 6 5 4 -4 -1 -26 -10 -50z m-201
-117 l30 -8 -30 0 c-16 0 -39 3 -50 8 l-20 9 20 -1 c11 0 34 -4 50 -8z"/>
<path d="M575 530 c-16 -7 -14 -8 12 -7 18 1 33 5 33 10 0 9 -19 8 -45 -3z"/>
</g>
</svg>
