<?xml version="1.0" standalone="no"?>
<!DOCTYPE svg PUBLIC "-//W3C//DTD SVG 20010904//EN"
 "http://www.w3.org/TR/2001/REC-SVG-20010904/DTD/svg10.dtd">
<svg version="1.0" xmlns="http://www.w3.org/2000/svg"
 width="100.000000pt" height="100.000000pt" viewBox="0 0 100.000000 100.000000"
 preserveAspectRatio="xMidYMid meet">

<g transform="translate(0.000000,100.000000) scale(0.100000,-0.100000)"
fill="#000000" stroke="none">
<path d="M471 927 c-26 -54 -26 -68 -1 -97 22 -25 26 -45 10 -55 -22 -14 -10
-35 20 -35 32 0 39 16 18 39 -11 11 -9 11 10 1 22 -11 23 -10 13 9 -13 23 -14
34 -3 27 16 -10 4 71 -17 112 -12 23 -23 42 -25 42 -2 0 -14 -19 -25 -43z"/>
<path d="M360 728 c-67 -26 -155 -110 -190 -183 -21 -43 -25 -65 -25 -150 0
-88 3 -107 27 -157 115 -246 454 -280 620 -62 104 136 95 329 -22 457 -51 56
-131 103 -190 112 -40 6 -25 -2 52 -30 68 -24 132 -85 170 -163 29 -59 33 -76
33 -150 0 -78 -2 -85 -26 -105 -14 -12 -40 -43 -59 -69 -28 -40 -60 -68 -60
-52 0 2 18 27 40 55 43 55 44 57 31 77 -6 10 -21 4 -65 -29 -55 -41 -56 -43
-56 -93 l0 -51 -19 31 c-11 17 -33 36 -51 42 -27 10 -29 14 -18 26 11 13 16
12 37 -1 21 -14 26 -14 30 -2 2 8 20 28 39 44 74 63 82 74 82 105 l0 31 -45
-33 c-32 -24 -44 -40 -45 -58 0 -56 -59 -92 -90 -55 -17 21 -29 19 -23 -4 5
-21 -23 -33 -58 -24 -14 4 -19 12 -16 24 6 23 -6 25 -23 4 -28 -34 -81 -6 -84
44 -1 27 -10 39 -49 68 l-47 35 0 -29 c0 -32 20 -59 73 -98 20 -15 40 -38 43
-51 6 -24 6 -24 33 -5 22 16 28 17 39 5 10 -11 8 -15 -13 -20 -14 -3 -36 -20
-50 -38 l-25 -31 0 46 c0 45 -2 48 -56 89 -44 33 -58 39 -65 29 -13 -21 -12
-23 32 -79 50 -63 46 -77 -5 -18 -21 24 -50 58 -66 76 -35 39 -47 113 -30 186
27 123 109 212 228 251 29 10 52 19 52 21 0 9 -39 1 -90 -18z m221 -559 c14
-14 18 -27 13 -42 -9 -32 -34 -57 -57 -57 -15 0 -18 5 -15 25 5 22 2 25 -25
25 -25 0 -27 -2 -17 -15 26 -32 -19 -48 -52 -18 -24 21 -24 78 0 92 9 6 43 11
75 11 44 0 61 -4 78 -21z"/>
<path d="M445 161 c-12 -5 5 -8 46 -7 37 1 62 4 55 8 -14 10 -75 9 -101 -1z"/>
<path d="M440 674 c-13 -25 -44 -68 -71 -94 -27 -27 -49 -52 -49 -55 0 -3 13
-5 29 -5 16 0 58 -15 93 -33 l63 -33 34 23 c19 13 53 28 75 34 23 6 47 13 54
15 8 2 -6 23 -36 53 -27 27 -59 70 -72 95 -20 43 -25 46 -60 46 -35 0 -40 -3
-60 -46z m91 -54 c22 -12 26 -59 7 -78 -15 -15 -61 -15 -76 0 -17 17 -15 48 5
70 18 20 36 23 64 8z"/>
<path d="M480 595 c-18 -21 -5 -47 22 -43 26 3 37 36 16 49 -18 12 -24 11 -38
-6z"/>
<path d="M260 476 c0 -29 46 -78 99 -106 20 -10 29 -19 21 -20 -20 -1 10 -18
51 -30 22 -7 29 -5 29 6 0 8 5 14 10 14 6 0 10 -6 10 -14 0 -8 5 -18 10 -21
13 -8 42 14 34 26 -3 5 0 9 5 9 6 0 11 -6 11 -14 0 -11 7 -13 29 -6 41 12 71
29 51 30 -8 1 1 9 21 20 57 30 99 75 99 105 l0 28 -63 -5 c-57 -5 -108 -24
-159 -60 -13 -10 -24 -7 -55 13 -52 35 -97 49 -154 49 -45 0 -49 -2 -49 -24z
m171 -36 c18 0 49 -41 49 -65 0 -30 -9 -31 -61 -5 -22 12 -44 18 -49 15 -17
-10 -11 33 6 50 9 9 23 14 31 11 8 -3 19 -6 24 -6z m190 0 c11 -6 19 -21 19
-36 0 -14 -4 -23 -9 -19 -6 3 -25 -4 -43 -15 -45 -27 -68 -26 -68 4 0 15 12
34 31 50 34 29 42 31 70 16z"/>
</g>
</svg>
